<svg width="61" height="44" viewBox="0 0 61 44" fill="none" xmlns="http://www.w3.org/2000/svg">
<g clip-path="url(#clip0_12_20)">
<path d="M57.0028 41.8984L53.3988 29.1684V1.4504C53.3988 0.393058 52.5469 -0.461182 51.4925 -0.461182H9.55504C8.50065 -0.461182 7.64879 0.393058 7.64879 1.4504V29.1684L4.04479 41.8984C3.59801 43.1469 4.51539 44.4611 5.83785 44.4611H55.2097C56.5322 44.4611 57.4496 43.1469 57.0028 41.8984ZM11.9379 3.83989H49.1097V27.436H11.9379V3.83989V3.83989ZM25.5378 40.16L26.0203 37.9497H34.9737L35.4562 40.16H25.5378V40.16ZM38.8815 40.16L37.7437 34.9808C37.6961 34.7598 37.4995 34.6045 37.2791 34.6045H23.7209C23.4945 34.6045 23.3039 34.7598 23.2562 34.9808L22.1184 40.16H8.99508L11.5149 31.2592H49.5327L52.0525 40.16H38.8815Z" fill="#FB5FAA"/>
<path d="M35.3158 6.43896V8.58531H42.3639L33.1754 17.7996L28.5812 13.1924C28.3805 12.9912 28.1083 12.8782 27.8245 12.8782C27.5408 12.8782 27.2686 12.9912 27.0679 13.1924L16.0526 24.2386L17.5658 25.756L27.8245 15.4686L32.4188 20.0757C32.6195 20.2769 32.8916 20.39 33.1754 20.39C33.4592 20.39 33.7313 20.2769 33.932 20.0757L43.8772 10.1028V17.1707H46.0175V6.43896H35.3158Z" fill="#FB5FAA"/>
</g>
<defs>
<clipPath id="clip0_12_20">
<rect width="61" height="44" fill="white"/>
</clipPath>
</defs>
</svg>
