<svg width="50" height="52" viewBox="0 0 50 52" fill="none" xmlns="http://www.w3.org/2000/svg">
<path d="M15.625 27C15.625 27.8288 15.2958 28.6237 14.7097 29.2097C14.1237 29.7958 13.3288 30.125 12.5 30.125C11.6712 30.125 10.8763 29.7958 10.2903 29.2097C9.70424 28.6237 9.375 27.8288 9.375 27C9.375 26.1712 9.70424 25.3763 10.2903 24.7903C10.8763 24.2042 11.6712 23.875 12.5 23.875C13.3288 23.875 14.1237 24.2042 14.7097 24.7903C15.2958 25.3763 15.625 26.1712 15.625 27ZM28.125 27C28.125 27.8288 27.7958 28.6237 27.2097 29.2097C26.6237 29.7958 25.8288 30.125 25 30.125C24.1712 30.125 23.3763 29.7958 22.7903 29.2097C22.2042 28.6237 21.875 27.8288 21.875 27C21.875 26.1712 22.2042 25.3763 22.7903 24.7903C23.3763 24.2042 24.1712 23.875 25 23.875C25.8288 23.875 26.6237 24.2042 27.2097 24.7903C27.7958 25.3763 28.125 26.1712 28.125 27ZM37.5 30.125C38.3288 30.125 39.1237 29.7958 39.7097 29.2097C40.2958 28.6237 40.625 27.8288 40.625 27C40.625 26.1712 40.2958 25.3763 39.7097 24.7903C39.1237 24.2042 38.3288 23.875 37.5 23.875C36.6712 23.875 35.8763 24.2042 35.2903 24.7903C34.7042 25.3763 34.375 26.1712 34.375 27C34.375 27.8288 34.7042 28.6237 35.2903 29.2097C35.8763 29.7958 36.6712 30.125 37.5 30.125Z" fill="white"/>
<path d="M6.76562 51.3844L6.82812 51.3719C12.5469 50.2375 16.0406 48.7406 17.6656 47.9188C20.0581 48.5569 22.5239 48.8783 25 48.875C38.8063 48.875 50 39.0813 50 27C50 14.9188 38.8063 5.125 25 5.125C11.1937 5.125 0 14.9188 0 27C0 32.5 2.32188 37.5313 6.15625 41.375C5.88799 43.8441 5.3386 46.2744 4.51875 48.6188L4.50938 48.6531C4.27639 49.3246 4.02209 49.9885 3.74688 50.6438C3.5 51.225 3.97813 51.875 4.6 51.775C5.32394 51.6565 6.04591 51.5263 6.76562 51.3844ZM9.26562 41.6719C9.3094 41.2144 9.25172 40.7528 9.09669 40.3202C8.94167 39.8875 8.69312 39.4944 8.36875 39.1688C5.05625 35.8438 3.125 31.5875 3.125 27C3.125 17.025 12.5125 8.25 25 8.25C37.4875 8.25 46.875 17.025 46.875 27C46.875 36.9781 37.4875 45.75 25 45.75C22.7972 45.7532 20.6035 45.4674 18.475 44.9C17.7312 44.7007 16.94 44.783 16.2531 45.1313C15.0438 45.7438 12.3781 46.9125 8.02187 47.9219C8.62961 45.8817 9.046 43.7893 9.26562 41.6719Z" fill="white"/>
</svg>
