<svg width="58" height="44" viewBox="0 0 58 44" fill="none" xmlns="http://www.w3.org/2000/svg">
<g clip-path="url(#clip0_12_15)">
<path d="M25.375 43.75C25.375 43.75 21.75 43.75 21.75 40.125C21.75 36.5 25.375 25.625 39.875 25.625C54.375 25.625 58 36.5 58 40.125C58 43.75 54.375 43.75 54.375 43.75H25.375ZM39.875 22C42.7592 22 45.5253 20.8542 47.5648 18.8148C49.6042 16.7753 50.75 14.0092 50.75 11.125C50.75 8.24077 49.6042 5.47467 47.5648 3.43521C45.5253 1.39576 42.7592 0.25 39.875 0.25C36.9908 0.25 34.2247 1.39576 32.1852 3.43521C30.1458 5.47467 29 8.24077 29 11.125C29 14.0092 30.1458 16.7753 32.1852 18.8148C34.2247 20.8542 36.9908 22 39.875 22V22Z" fill="#FB5FAA"/>
<path fill-rule="evenodd" clip-rule="evenodd" d="M18.908 43.75C18.3706 42.6183 18.1026 41.3775 18.125 40.125C18.125 35.2131 20.59 30.1562 25.143 26.64C22.8705 25.9397 20.5028 25.5973 18.125 25.625C3.625 25.625 0 36.5 0 40.125C0 43.75 3.625 43.75 3.625 43.75H18.908Z" fill="#FB5FAA"/>
<path d="M16.3125 22C18.716 22 21.0211 21.0452 22.7207 19.3457C24.4202 17.6461 25.375 15.341 25.375 12.9375C25.375 10.534 24.4202 8.22889 22.7207 6.52934C21.0211 4.8298 18.716 3.875 16.3125 3.875C13.909 3.875 11.6039 4.8298 9.90434 6.52934C8.2048 8.22889 7.25 10.534 7.25 12.9375C7.25 15.341 8.2048 17.6461 9.90434 19.3457C11.6039 21.0452 13.909 22 16.3125 22V22Z" fill="#FB5FAA"/>
</g>
<defs>
<clipPath id="clip0_12_15">
<rect width="58" height="44" fill="white"/>
</clipPath>
</defs>
</svg>
