<svg width="156" height="156" viewBox="0 0 156 156" fill="none" xmlns="http://www.w3.org/2000/svg">
<circle cx="78" cy="78" r="78" fill="#2C2F80"/>
<path d="M69 72H46.1L39 51L31.9 72H9L27.5 85L20.4 106L39 93L57.5 106L50.4 85L69 72Z" fill="#FFCE31"/>
<path d="M53.2 69.3L57.2 57.9L46.7 65.1L48.2 69.3H53.2ZM34.9 99L39 111L43.1 99L39 96.2L34.9 99ZM57.7 83.3L53.9 85.9L55.5 90.7H68.4L57.7 83.3ZM31.3 65.1L20.8 57.9L24.8 69.3H29.8L31.3 65.1ZM20.3 83.3L9.59998 90.7H22.5L24.1 85.9L20.3 83.3Z" fill="#FFDF85"/>
<path d="M147 72H124.1L117 51L109.9 72H87L105.5 85L98.4 106L117 93L135.5 106L128.4 85L147 72Z" fill="#FFCE31"/>
<path d="M131.2 69.3L135.2 57.9L124.7 65.1L126.2 69.3H131.2ZM112.9 99L117 111L121.1 99L117 96.2L112.9 99ZM135.7 83.3L131.9 85.9L133.5 90.7H146.4L135.7 83.3ZM109.3 65.1L98.8 57.9L102.8 69.3H107.8L109.3 65.1ZM98.3 83.3L87.6 90.7H100.5L102.1 85.9L98.3 83.3Z" fill="#FFDF85"/>
</svg>
