<svg width="52" height="52" viewBox="0 0 52 52" fill="none" xmlns="http://www.w3.org/2000/svg">
<path d="M35.9017 47.6667C36.4771 47.67 37.0475 47.5587 37.5794 47.3392C38.1114 47.1198 38.5943 46.7965 39 46.3884L44.8717 40.5167C45.2752 40.1108 45.5017 39.5616 45.5017 38.9892C45.5017 38.4168 45.2752 37.8677 44.8717 37.4617L36.205 28.7951C35.799 28.3915 35.2499 28.165 34.6775 28.165C34.1051 28.165 33.5559 28.3915 33.15 28.7951L29.6833 32.2401C27.2832 31.6001 25.0603 30.422 23.1833 28.7951C21.5608 26.9151 20.3832 24.6932 19.7383 22.2951L23.1833 18.8284C23.5869 18.4224 23.8134 17.8733 23.8134 17.3009C23.8134 16.7285 23.5869 16.1793 23.1833 15.7734L14.5167 7.10673C14.1107 6.70319 13.5616 6.47668 12.9892 6.47668C12.4168 6.47668 11.8676 6.70319 11.4617 7.10673L5.61166 13.0001C5.20353 13.4058 4.88029 13.8887 4.66081 14.4206C4.44133 14.9526 4.33 15.5229 4.33332 16.0984C4.52989 24.4234 7.85649 32.3685 13.65 38.3501C19.6315 44.1436 27.5767 47.4702 35.9017 47.6667ZM13 11.7217L18.6117 17.3334L15.8167 20.1284C15.5519 20.3764 15.3537 20.6868 15.2401 21.0313C15.1266 21.3758 15.1013 21.7433 15.1667 22.1001C15.9765 25.7192 17.6911 29.0738 20.15 31.8501C22.9241 34.3121 26.2796 36.0272 29.9 36.8334C30.2514 36.9069 30.6155 36.8918 30.9597 36.7897C31.3038 36.6876 31.6172 36.5016 31.8717 36.2484L34.6667 33.3884L40.2783 39.0001L35.945 43.3334C28.7597 43.1484 21.9039 40.2808 16.7267 35.2951C11.728 30.1157 8.85214 23.2508 8.66666 16.0551L13 11.7217ZM43.3333 23.8334H47.6667C47.7228 21.2572 47.2568 18.6964 46.2968 16.3051C45.3367 13.9139 43.9024 11.7418 42.0803 9.9197C40.2583 8.09764 38.0862 6.66335 35.6949 5.70328C33.3037 4.7432 30.7428 4.27721 28.1667 4.3334V8.66673C30.1771 8.59718 32.1804 8.94192 34.052 9.6795C35.9235 10.4171 37.6234 11.5318 39.0458 12.9542C40.4683 14.3767 41.583 16.0765 42.3205 17.9481C43.0581 19.8197 43.4029 21.8229 43.3333 23.8334Z" fill="white"/>
<path d="M28.1666 17.3333C32.7166 17.3333 34.6666 19.2833 34.6666 23.8333H39C39 16.8567 35.1433 13 28.1666 13V17.3333Z" fill="white"/>
</svg>
