<svg width="55" height="55" viewBox="0 0 55 55" fill="none" xmlns="http://www.w3.org/2000/svg">
<path d="M36.0938 3.4375C33.6782 3.43695 31.2961 4.00222 29.1384 5.08803C26.9806 6.17384 25.1073 7.74999 23.6683 9.69017C22.2294 11.6304 21.2649 13.8806 20.8523 16.2606C20.4396 18.6407 20.5901 21.0843 21.2919 23.3956L3.4375 41.25V51.5625H13.75L31.6044 33.7081C33.732 34.354 35.9739 34.5335 38.1772 34.2345C40.3805 33.9356 42.4935 33.1651 44.3721 31.9757C46.2507 30.7863 47.8509 29.2058 49.0634 27.3421C50.276 25.4783 51.0725 23.375 51.3987 21.1756C51.7249 18.9761 51.5731 16.7322 50.9537 14.5967C50.3342 12.4613 49.2617 10.4844 47.8091 8.80096C46.3566 7.1175 44.5581 5.76696 42.5364 4.84139C40.5147 3.91583 38.3173 3.43698 36.0938 3.4375ZM36.0938 30.9375C34.9104 30.9369 33.7336 30.762 32.6013 30.4184L30.6298 29.8203L29.1741 31.2761L23.7067 36.7434L21.3366 34.375L18.9062 36.8053L21.2764 39.1755L18.5505 41.9014L16.1803 39.5312L13.75 41.9616L16.1202 44.3317L12.3269 48.125H6.875V42.6731L23.7222 25.8259L25.1797 24.3702L24.5816 22.3987C23.8469 19.977 23.8947 17.3853 24.7179 14.9923C25.5412 12.5992 27.0982 10.5267 29.1673 9.06954C31.2363 7.61239 33.7122 6.84478 36.2428 6.87591C38.7733 6.90704 41.2295 7.73533 43.2621 9.24295C45.2948 10.7506 46.8002 12.8608 47.5644 15.2733C48.3286 17.6859 48.3125 20.278 47.5185 22.6809C46.7245 25.0839 45.1931 27.1752 43.1419 28.6576C41.0908 30.1399 38.6245 30.9377 36.0938 30.9375Z" fill="#151975"/>
<path d="M37.8125 20.625C39.711 20.625 41.25 19.086 41.25 17.1875C41.25 15.289 39.711 13.75 37.8125 13.75C35.914 13.75 34.375 15.289 34.375 17.1875C34.375 19.086 35.914 20.625 37.8125 20.625Z" fill="#151975"/>
</svg>
