<svg width="53" height="53" viewBox="0 0 53 53" fill="none" xmlns="http://www.w3.org/2000/svg">
<path d="M50.3499 38.425V14.575C50.3499 12.3755 48.5744 10.6 46.3749 10.6H9.24844C7.04894 10.6 5.27344 12.3755 5.27344 14.575V38.425C5.27344 40.6245 7.04894 42.4 9.24844 42.4H46.3749C48.5744 42.4 50.3499 40.6245 50.3499 38.425ZM46.8784 14.2835C47.7529 15.158 47.2759 16.059 46.7989 16.5095L36.0399 26.3675L46.3749 37.1265C46.6929 37.4975 46.9049 38.0805 46.5339 38.478C46.1894 38.902 45.3944 38.8755 45.0499 38.6105L33.4694 28.726L27.7984 33.8935L22.1539 28.726L10.5734 38.6105C10.2289 38.8755 9.43394 38.902 9.08944 38.478C8.71844 38.0805 8.93044 37.4975 9.24844 37.1265L19.5834 26.3675L8.82444 16.5095C8.34744 16.059 7.87044 15.158 8.74494 14.2835C9.61944 13.409 10.5204 13.833 11.2624 14.469L27.7984 27.825L44.3609 14.469C45.1029 13.833 46.0039 13.409 46.8784 14.2835Z" fill="#151975"/>
</svg>
