<svg width="156" height="156" viewBox="0 0 156 156" fill="none" xmlns="http://www.w3.org/2000/svg">
<circle cx="78" cy="78" r="78" fill="#2C2F80"/>
<path d="M69 89H46.1L39 68L31.9 89H9L27.5 102L20.4 123L39 110L57.5 123L50.4 102L69 89Z" fill="#FFCE31"/>
<path d="M53.2 86.3L57.2 74.9L46.7 82.1L48.2 86.3H53.2ZM34.9 116L39 128L43.1 116L39 113.2L34.9 116ZM57.7 100.3L53.9 102.9L55.5 107.7H68.4L57.7 100.3ZM31.3 82.1L20.8 74.9L24.8 86.3H29.8L31.3 82.1ZM20.3 100.3L9.59998 107.7H22.5L24.1 102.9L20.3 100.3Z" fill="#FFDF85"/>
<path d="M147 89H124.1L117 68L109.9 89H87L105.5 102L98.4 123L117 110L135.5 123L128.4 102L147 89Z" fill="#FFCE31"/>
<path d="M131.2 86.3L135.2 74.9L124.7 82.1L126.2 86.3H131.2ZM112.9 116L117 128L121.1 116L117 113.2L112.9 116ZM135.7 100.3L131.9 102.9L133.5 107.7H146.4L135.7 100.3ZM109.3 82.1L98.8 74.9L102.8 86.3H107.8L109.3 82.1ZM98.3 100.3L87.6 107.7H100.5L102.1 102.9L98.3 100.3Z" fill="#FFDF85"/>
<path d="M108 39H85.1L78 18L70.9 39H48L66.5 52L59.4 73L78 60L96.5 73L89.4 52L108 39Z" fill="#FFCE31"/>
<path d="M92.2 36.3L96.2 24.9L85.7 32.1L87.2 36.3H92.2ZM73.9 66L78 78L82.1 66L78 63.2L73.9 66ZM96.7 50.3L92.9 52.9L94.5 57.7H107.4L96.7 50.3ZM70.3 32.1L59.8 24.9L63.8 36.3H68.8L70.3 32.1ZM59.3 50.3L48.6 57.7H61.5L63.1 52.9L59.3 50.3Z" fill="#FFDF85"/>
</svg>
