<svg width="45" height="52" viewBox="0 0 45 52" fill="none" xmlns="http://www.w3.org/2000/svg">
<path d="M43.5757 42.7295L40.5 33.5H37.125L38.9992 42.5H6.00071L7.87496 33.5H4.49996L1.42196 42.7295C0.641207 45.0785 2.02496 47 4.49996 47H40.5C42.975 47 44.3587 45.0785 43.5757 42.7295ZM33.75 13.25C33.75 10.2663 32.5647 7.40483 30.4549 5.29505C28.3451 3.18526 25.4836 2 22.5 2C19.5163 2 16.6548 3.18526 14.545 5.29505C12.4352 7.40483 11.25 10.2663 11.25 13.25C11.25 23.9937 22.5 35.75 22.5 35.75C22.5 35.75 33.75 23.9937 33.75 13.25ZM16.425 13.385C16.425 12.5873 16.5821 11.7975 16.8874 11.0605C17.1928 10.3236 17.6403 9.65406 18.2044 9.09012C18.7686 8.52619 19.4383 8.07892 20.1753 7.77386C20.9124 7.46881 21.7023 7.31195 22.5 7.31225C24.1108 7.31225 25.6558 7.95217 26.7948 9.09125C27.9339 10.2303 28.5738 11.7752 28.5738 13.3861C28.5738 14.997 27.9339 16.5419 26.7948 17.681C25.6558 18.8201 24.1108 19.46 22.5 19.46C20.8888 19.46 19.3436 18.82 18.2043 17.6807C17.065 16.5414 16.425 14.9962 16.425 13.385Z" fill="white"/>
</svg>
