<svg width="44" height="44" viewBox="0 0 44 44" fill="none" xmlns="http://www.w3.org/2000/svg">
<path d="M36.4628 35.9436C34.7974 33.6314 30.1906 27.5308 26.4088 22.5104C27.94 20.3126 29.161 18.5174 29.7198 17.578C33.1188 11.8712 31.6426 8.20599 29.7682 5.10399C27.8894 1.99979 27.5924 0.206787 22 0.206787C16.4054 0.206787 16.1084 1.99979 14.2318 5.10619C12.353 8.20819 10.879 11.8734 14.278 17.5802C14.8368 18.5174 16.0578 20.3148 17.5912 22.5126C13.8072 27.5308 9.20039 33.6336 7.53499 35.9458C7.14779 36.4826 7.18299 37.4066 7.55479 38.3262C7.84079 39.0346 8.94079 42.2026 9.20919 42.867C9.55239 43.7228 10.67 44.341 11.5896 43.0694C12.1198 42.3346 17.27 35.3144 22 28.721C26.7278 35.3122 31.8802 42.3346 32.4104 43.0694C33.3278 44.341 34.4476 43.7228 34.7908 42.867C35.0592 42.2004 36.1592 39.0346 36.4452 38.3262C36.8126 37.4044 36.85 36.4804 36.4628 35.9436ZM21.1948 15.5386C18.8452 12.2738 17.1644 8.47439 17.1644 8.47439C17.1644 8.47439 18.0884 6.80679 22 6.80679C25.9116 6.80679 26.8356 8.47439 26.8356 8.47439C26.8356 8.47439 25.1504 12.2738 22.803 15.5386L22 16.632C21.7288 16.2696 21.4604 15.9051 21.1948 15.5386Z" fill="#FB5FAA"/>
</svg>
