<svg width="64" height="52" viewBox="0 0 64 52" fill="none" xmlns="http://www.w3.org/2000/svg">
<path opacity="0.3" d="M53.3333 14.3333V25.2133C52.4533 25.08 51.5733 25 50.6666 25C41.2533 25 33.52 31.96 32.2133 41H10.6666V14.3333L32 27.6667L53.3333 14.3333ZM53.3333 9H10.6666L32 22.3333L53.3333 9Z" fill="white"/>
<path d="M32.2134 41.0001H10.6667V14.3334L32 27.6667L53.3334 14.3334V25.2134C55.2267 25.4801 57.0134 26.0401 58.6667 26.8134V9.00008C58.6667 6.06675 56.2667 3.66675 53.3334 3.66675H10.6667C7.73337 3.66675 5.36004 6.06675 5.36004 9.00008L5.33337 41.0001C5.33337 43.9334 7.73337 46.3334 10.6667 46.3334H32.2134C32.08 45.4534 32 44.5734 32 43.6667C32 42.7601 32.08 41.8801 32.2134 41.0001ZM53.3334 9.00008L32 22.3334L10.6667 9.00008H53.3334ZM46.24 51.6667L36.8 42.2267L40.56 38.4667L46.2134 44.1201L57.52 32.8134L61.3334 36.5734L46.24 51.6667Z" fill="white"/>
</svg>
