<svg width="297" height="64" viewBox="0 0 297 64" fill="none" xmlns="http://www.w3.org/2000/svg">
<path d="M74.8287 48.35C74.462 48.35 74.2954 48.1333 74.3287 47.7C74.362 47.2333 74.3454 46.6333 74.2787 45.9C73.9787 42.1 73.612 38.25 73.1787 34.35C72.7787 30.45 72.2287 26.6333 71.5287 22.9C71.2287 21.3 70.812 20.1 70.2787 19.3C69.7787 18.4667 69.212 17.9167 68.5787 17.65C67.9787 17.35 67.3787 17.2 66.7787 17.2C66.212 17.2 65.7287 17.2 65.3287 17.2C65.1287 17.2 65.0287 17.1333 65.0287 17C65.0287 16.8667 65.112 16.7333 65.2787 16.6C65.4787 16.4333 65.6787 16.35 65.8787 16.35C67.012 16.3833 67.8954 16.4167 68.5287 16.45C69.1954 16.45 69.7454 16.45 70.1787 16.45C70.612 16.45 71.0787 16.4667 71.5787 16.5C72.2454 16.5333 72.912 16.5667 73.5787 16.6C74.2454 16.6 74.912 16.6 75.5787 16.6C76.6454 16.6 77.712 16.5833 78.7787 16.55C79.8454 16.4833 80.8787 16.4333 81.8787 16.4C82.0454 16.4 82.1287 16.4833 82.1287 16.65C82.1287 16.7833 82.0787 16.9167 81.9787 17.05C81.8787 17.15 81.7454 17.2 81.5787 17.2C81.2454 17.2 80.7787 17.2 80.1787 17.2C79.612 17.2 79.0287 17.25 78.4287 17.35C77.8287 17.45 77.312 17.65 76.8787 17.95C76.4787 18.25 76.2787 18.6833 76.2787 19.25C76.2787 19.9833 76.3454 21.05 76.4787 22.45C76.612 23.85 76.7787 25.4333 76.9787 27.2C77.1787 28.9333 77.3954 30.7167 77.6287 32.55C77.862 34.35 78.0954 36.05 78.3287 37.65C78.562 39.25 78.762 40.5833 78.9287 41.65C79.0287 42.2833 79.212 42.6 79.4787 42.6C79.6787 42.6 79.9787 42.3 80.3787 41.7C81.312 40.2 82.262 38.55 83.2287 36.75C84.1954 34.9167 85.162 33.0333 86.1287 31.1C87.1287 29.1667 88.112 27.3 89.0787 25.5C89.4454 24.8667 89.6787 24.3667 89.7787 24C89.912 23.6 89.9787 23.2333 89.9787 22.9C89.9787 22.7 89.962 22.5 89.9287 22.3C89.8954 22.1 89.8454 21.8833 89.7787 21.65C89.5454 20.2167 89.112 19.1333 88.4787 18.4C87.8787 17.6333 86.6454 17.25 84.7787 17.25H84.6787C84.4787 17.25 84.3787 17.1333 84.3787 16.9C84.3787 16.7667 84.412 16.65 84.4787 16.55C84.5787 16.4167 84.6954 16.3667 84.8287 16.4C85.9954 16.4333 86.8454 16.4667 87.3787 16.5C87.912 16.5333 88.3454 16.5667 88.6787 16.6C89.012 16.6 89.4287 16.6167 89.9287 16.65C90.4954 16.6833 91.0954 16.7 91.7287 16.7C92.362 16.7 93.0287 16.7 93.7287 16.7C95.0954 16.7 96.4954 16.6833 97.9287 16.65C99.3954 16.6167 100.662 16.5667 101.729 16.5C101.829 16.5 101.879 16.55 101.879 16.65C101.879 16.75 101.829 16.8667 101.729 17C101.629 17.1333 101.495 17.2167 101.329 17.25C100.929 17.3167 100.362 17.4167 99.6287 17.55C98.9287 17.65 98.212 17.8167 97.4787 18.05C96.7454 18.2833 96.1287 18.5833 95.6287 18.95C95.1287 19.3167 94.8787 19.7833 94.8787 20.35C94.8787 21.0833 94.9454 22.1167 95.0787 23.45C95.212 24.7833 95.362 26.2667 95.5287 27.9C95.7287 29.5333 95.9454 31.2 96.1787 32.9C96.412 34.6 96.6454 36.2167 96.8787 37.75C97.112 39.2833 97.312 40.5833 97.4787 41.65C97.5787 42.2833 97.762 42.6 98.0287 42.6C98.262 42.6 98.5787 42.3 98.9787 41.7C100.045 39.9667 101.145 38.0167 102.279 35.85C103.412 33.6833 104.545 31.4833 105.679 29.25C106.845 26.9833 107.979 24.8667 109.079 22.9C109.512 22.1333 109.812 21.4833 109.979 20.95C110.145 20.3833 110.229 19.9 110.229 19.5C110.229 18.5667 109.862 17.9667 109.129 17.7C108.429 17.4333 107.645 17.3 106.779 17.3C106.412 17.3 106.045 17.3167 105.679 17.35C105.312 17.3833 104.979 17.4 104.679 17.4H104.529C104.429 17.4 104.379 17.3667 104.379 17.3C104.379 17.1667 104.495 17 104.729 16.8C104.962 16.6 105.162 16.5333 105.329 16.6C106.895 16.5 108.295 16.45 109.529 16.45C110.295 16.45 110.962 16.4667 111.529 16.5C112.129 16.5 112.629 16.5 113.029 16.5C113.962 16.5333 115.129 16.5167 116.529 16.45C117.962 16.3833 119.362 16.35 120.729 16.35C120.829 16.35 120.879 16.3833 120.879 16.45C120.879 16.5833 120.795 16.7667 120.629 17C120.462 17.2 120.312 17.2833 120.179 17.25C119.945 17.25 119.495 17.2667 118.829 17.3C118.162 17.3 117.379 17.5333 116.479 18C115.612 18.4333 114.695 19.3167 113.729 20.65C113.195 21.3833 112.529 22.3667 111.729 23.6C110.962 24.8 110.112 26.1667 109.179 27.7C108.245 29.2 107.312 30.7333 106.379 32.3C105.479 33.8667 104.612 35.3833 103.779 36.85C102.945 38.2833 102.212 39.55 101.579 40.65C100.979 41.75 100.545 42.5833 100.279 43.15C100.079 43.55 99.9787 43.8667 99.9787 44.1C100.012 44.3 100.012 44.4833 99.9787 44.65C99.9454 44.7833 99.762 44.95 99.4287 45.15C99.1287 45.3167 98.5787 45.55 97.7787 45.85C97.2454 46.05 96.712 46.35 96.1787 46.75C95.6787 47.15 95.1954 47.5167 94.7287 47.85C94.262 48.15 93.8287 48.3167 93.4287 48.35C93.1954 48.35 93.0454 48.2667 92.9787 48.1C92.9454 47.9333 92.9287 47.7167 92.9287 47.45C92.9287 47.25 92.9287 47.0167 92.9287 46.75C92.9287 46.4833 92.912 46.2 92.8787 45.9C92.6454 42.8333 92.362 39.75 92.0287 36.65C91.7287 33.5167 91.3454 30.4333 90.8787 27.4C89.9787 28.8 89.0454 30.2833 88.0787 31.85C87.1454 33.4167 86.2454 34.95 85.3787 36.45C84.512 37.95 83.7454 39.3 83.0787 40.5C82.4454 41.6667 81.9787 42.55 81.6787 43.15C81.4787 43.55 81.3787 43.8667 81.3787 44.1C81.412 44.3 81.412 44.4833 81.3787 44.65C81.3454 44.7833 81.1787 44.95 80.8787 45.15C80.5787 45.3167 80.0287 45.55 79.2287 45.85C78.6954 46.05 78.162 46.35 77.6287 46.75C77.0954 47.15 76.5954 47.5167 76.1287 47.85C75.662 48.15 75.2287 48.3167 74.8287 48.35ZM127.328 33.25L126.728 32.85C126.795 32.5167 126.845 32.2167 126.878 31.95C126.945 31.65 126.978 31.3667 126.978 31.1C126.978 30.0333 126.661 29.2167 126.028 28.65C125.428 28.0833 124.628 27.8 123.628 27.8C122.695 27.8 121.611 28.0833 120.378 28.65L120.128 28.25C121.695 27.35 123.145 26.65 124.478 26.15C125.845 25.65 127.145 25.4 128.378 25.4H128.578C128.945 25.4 129.128 25.6 129.128 26C129.128 26.4333 129.045 26.95 128.878 27.55C128.711 28.1167 128.528 28.7167 128.328 29.35C128.195 29.6833 128.078 30.0167 127.978 30.35C127.878 30.65 127.795 30.9667 127.728 31.3C127.495 32.1333 127.361 32.7833 127.328 33.25ZM116.428 48.05C115.428 48.05 114.495 47.9 113.628 47.6C112.761 47.3 112.145 46.7667 111.778 46C111.545 45.5333 111.378 45 111.278 44.4C111.211 43.7667 111.178 43.1167 111.178 42.45C111.178 41.25 111.295 39.9833 111.528 38.65C111.795 37.2833 112.095 36.0333 112.428 34.9C113.128 32.6333 113.911 30.9 114.778 29.7C115.645 28.5 116.828 27.6333 118.328 27.1C118.561 27.0333 118.928 26.9 119.428 26.7C119.961 26.5 120.495 26.3 121.028 26.1C121.595 25.8667 122.045 25.7 122.378 25.6L122.428 26.2L119.478 27.8C119.045 28.0333 118.595 28.5667 118.128 29.4C117.661 30.2 117.228 31.1667 116.828 32.3C116.428 33.4333 116.061 34.6 115.728 35.8L118.878 34.3C119.278 34.2 119.711 34.15 120.178 34.15C120.611 34.15 121.028 34.1833 121.428 34.25C121.861 34.3167 122.295 34.3833 122.728 34.45C123.495 34.55 124.278 34.6 125.078 34.6C125.411 34.6 125.745 34.5833 126.078 34.55C126.445 34.5167 126.795 34.4667 127.128 34.4L127.328 34.75L122.678 37.05C122.478 37.0833 122.278 37.1167 122.078 37.15C121.911 37.15 121.728 37.15 121.528 37.15C120.728 37.15 119.911 37.05 119.078 36.85C118.278 36.65 117.478 36.55 116.678 36.55C116.478 36.55 116.278 36.55 116.078 36.55C115.911 36.55 115.728 36.5833 115.528 36.65C115.361 37.45 115.211 38.2333 115.078 39C114.978 39.7333 114.928 40.4333 114.928 41.1C114.928 42.1333 115.078 42.9833 115.378 43.65C115.811 44.5833 116.445 45.3167 117.278 45.85C118.111 46.35 119.028 46.6 120.028 46.6C121.495 46.6 122.945 46 124.378 44.8C125.811 43.6 126.845 41.6667 127.478 39L128.178 39.5C127.878 40.3333 127.561 41.25 127.228 42.25C126.895 43.2167 126.595 44.4 126.328 45.8C125.995 46.3333 125.578 46.6833 125.078 46.85C124.578 47.0167 124.011 47.1 123.378 47.1C123.145 47.1 122.878 47.1 122.578 47.1C122.278 47.0667 121.978 47.05 121.678 47.05C121.211 47.2833 120.478 47.5167 119.478 47.75C118.511 47.95 117.495 48.05 116.428 48.05ZM130.159 47.65C130.426 46.1833 130.659 44.6833 130.859 43.15C131.059 41.5833 131.276 40.0167 131.509 38.45C131.909 35.95 132.426 33.5 133.059 31.1C133.726 28.7 134.609 26.45 135.709 24.35C136.843 22.2167 138.309 20.3333 140.109 18.7C141.909 17.0667 144.143 15.75 146.809 14.75L150.759 13.3L150.859 13.7C148.059 14.9 145.743 16.35 143.909 18.05C142.076 19.75 140.609 21.6167 139.509 23.65C138.409 25.6833 137.559 27.8 136.959 30C136.359 32.2 135.893 34.4 135.559 36.6C136.526 34.7667 137.626 32.9667 138.859 31.2C140.126 29.4 141.509 27.8167 143.009 26.45C144.543 25.0833 146.176 24.15 147.909 23.65V24.4C146.309 24.8667 144.793 25.7833 143.359 27.15C141.926 28.5167 140.609 30.1333 139.409 32C138.243 33.8667 137.243 35.8167 136.409 37.85C135.609 39.8833 135.026 41.8 134.659 43.6C134.626 43.8333 134.576 44.1833 134.509 44.65C134.443 45.1167 134.409 45.4 134.409 45.5L130.159 47.65ZM154.009 21.4L153.359 21C153.559 20.2 153.659 19.4667 153.659 18.8C153.659 17.7333 153.409 16.9167 152.909 16.35C152.409 15.75 151.693 15.45 150.759 15.45C149.993 15.45 149.076 15.7 148.009 16.2L147.759 15.8C149.293 14.9 150.576 14.3 151.609 14C152.676 13.7 153.826 13.55 155.059 13.55H155.259C155.626 13.55 155.809 13.75 155.809 14.15C155.809 14.55 155.726 15.05 155.559 15.65C155.393 16.25 155.193 16.85 154.959 17.45C154.826 17.8167 154.709 18.1667 154.609 18.5C154.509 18.8 154.426 19.1167 154.359 19.45C154.293 19.8167 154.209 20.1667 154.109 20.5C154.043 20.8333 154.009 21.1333 154.009 21.4ZM129.009 49.7V49.05C130.076 49.05 131.276 48.9 132.609 48.6C133.976 48.3333 135.293 47.85 136.559 47.15C137.859 46.45 138.909 45.4833 139.709 44.25C141.243 41.8833 142.326 39.35 142.959 36.65C143.593 33.9167 143.926 30.8167 143.959 27.35C144.426 27.05 144.959 26.7167 145.559 26.35C146.193 25.95 146.993 25.5333 147.959 25.1V26.85C147.959 29.75 147.743 32.5833 147.309 35.35C146.909 38.1167 146.026 40.5833 144.659 42.75C143.493 44.55 142.076 45.9667 140.409 47C138.743 48 136.943 48.7 135.009 49.1C133.076 49.5 131.076 49.7 129.009 49.7ZM180.936 48.1C180.202 46.5 179.336 44.75 178.336 42.85C177.336 40.9167 176.286 38.95 175.186 36.95C174.119 34.9167 173.052 32.95 171.986 31.05C170.952 29.15 170.002 27.4167 169.136 25.85C168.302 24.2833 167.652 23 167.186 22C167.086 22.4333 166.919 23.2 166.686 24.3C166.452 25.3667 166.169 26.6333 165.836 28.1C165.536 29.5667 165.219 31.1167 164.886 32.75C164.586 34.35 164.286 35.9167 163.986 37.45C163.686 38.9833 163.419 40.3667 163.186 41.6C162.986 42.8 162.852 43.7167 162.786 44.35C162.752 44.7833 162.886 45.15 163.186 45.45C163.486 45.75 163.819 45.9833 164.186 46.15C164.586 46.2833 164.886 46.3667 165.086 46.4C165.652 46.4333 166.369 46.4667 167.236 46.5C168.102 46.5333 169.052 46.55 170.086 46.55C170.252 46.55 170.336 46.6 170.336 46.7C170.336 46.8333 170.252 46.9833 170.086 47.15C169.919 47.2833 169.752 47.35 169.586 47.35C169.286 47.35 168.652 47.3333 167.686 47.3C166.719 47.2333 165.619 47.1833 164.386 47.15C163.186 47.0833 162.036 47.05 160.936 47.05C160.636 47.05 160.336 47.0667 160.036 47.1C159.769 47.1 159.502 47.1 159.236 47.1C158.669 47.1333 157.819 47.1833 156.686 47.25C155.586 47.2833 154.402 47.3 153.136 47.3C152.736 47.3 152.319 47.3 151.886 47.3C151.486 47.2667 151.069 47.25 150.636 47.25H150.586C150.452 47.25 150.336 47.2 150.236 47.1C150.169 46.9667 150.136 46.85 150.136 46.75C150.136 46.55 150.252 46.4667 150.486 46.5C151.052 46.5 151.569 46.5167 152.036 46.55C152.502 46.55 152.952 46.55 153.386 46.55C154.686 46.55 155.719 46.4333 156.486 46.2C157.286 45.9667 157.936 45.45 158.436 44.65C158.969 43.85 159.486 42.6 159.986 40.9C161.052 37.2667 161.919 33.7833 162.586 30.45C163.252 27.0833 163.886 23.5833 164.486 19.95C164.586 19.2833 164.469 18.7167 164.136 18.25C163.836 17.75 163.452 17.4667 162.986 17.4C162.652 17.3333 162.086 17.2833 161.286 17.25C160.486 17.2167 159.702 17.2 158.936 17.2C158.202 17.1667 157.702 17.1667 157.436 17.2C157.269 17.2 157.186 17.15 157.186 17.05C157.186 16.9167 157.269 16.7667 157.436 16.6C157.636 16.4333 157.802 16.35 157.936 16.35C159.102 16.35 160.436 16.3833 161.936 16.45C163.469 16.5167 164.952 16.55 166.386 16.55C167.052 16.55 167.586 16.5167 167.986 16.45C168.419 16.3833 168.902 16.35 169.436 16.35C169.736 16.35 169.952 16.4333 170.086 16.6C170.252 16.7333 170.452 17.1167 170.686 17.75C170.919 18.35 171.319 19.2333 171.886 20.4C172.486 21.5667 173.169 22.8833 173.936 24.35C174.702 25.7833 175.502 27.2833 176.336 28.85C177.169 30.3833 177.986 31.8667 178.786 33.3C179.586 34.7 180.286 35.9333 180.886 37C181.519 38.0333 181.986 38.7833 182.286 39.25C182.486 38.4833 182.719 37.4333 182.986 36.1C183.252 34.7667 183.536 33.3 183.836 31.7C184.136 30.1 184.419 28.5167 184.686 26.95C184.952 25.35 185.186 23.9 185.386 22.6C185.619 21.3 185.769 20.3 185.836 19.6C185.902 19.0333 185.736 18.5833 185.336 18.25C184.936 17.9167 184.419 17.6667 183.786 17.5C183.186 17.3333 182.569 17.2333 181.936 17.2C181.336 17.1333 180.852 17.1 180.486 17.1H180.436C180.302 17.1 180.236 17.05 180.236 16.95C180.236 16.8167 180.319 16.6833 180.486 16.55C180.652 16.3833 180.819 16.3 180.986 16.3C181.386 16.3 182.186 16.3333 183.386 16.4C184.619 16.4667 185.919 16.5 187.286 16.5C187.652 16.5 188.002 16.5 188.336 16.5C188.669 16.5 189.002 16.4833 189.336 16.45C189.836 16.4167 190.569 16.4 191.536 16.4C192.502 16.4 193.552 16.4 194.686 16.4C195.852 16.3667 196.986 16.35 198.086 16.35C198.219 16.35 198.286 16.4 198.286 16.5C198.286 16.6333 198.202 16.8 198.036 17C197.869 17.2 197.702 17.2833 197.536 17.25C195.669 17.2167 194.202 17.2667 193.136 17.4C192.069 17.5 191.252 17.75 190.686 18.15C190.152 18.5167 189.736 19.0833 189.436 19.85C189.169 20.5833 188.869 21.5833 188.536 22.85C188.302 23.6833 188.036 24.7667 187.736 26.1C187.469 27.4333 187.169 28.8833 186.836 30.45C186.536 32.0167 186.236 33.55 185.936 35.05C185.636 36.55 185.369 37.9 185.136 39.1C184.936 40.3 184.786 41.2167 184.686 41.85C184.919 42.2833 185.036 42.7667 185.036 43.3C185.036 44.2667 184.669 45.0667 183.936 45.7C183.636 45.9333 183.269 46.3 182.836 46.8C182.402 47.2667 182.002 47.6667 181.636 48C181.269 48.3 181.036 48.3333 180.936 48.1ZM208.948 26.9C207.881 27 206.998 26.9 206.298 26.6C205.598 26.3 204.815 26.15 203.948 26.15C203.448 26.15 202.898 26.25 202.298 26.45L202.148 25.9C202.948 25.5 203.798 25.1333 204.698 24.8C205.631 24.4667 206.515 24.3 207.348 24.3C207.881 24.3 208.398 24.35 208.898 24.45C209.398 24.55 209.915 24.65 210.448 24.75C210.815 24.7833 211.181 24.8333 211.548 24.9C211.915 24.9333 212.298 24.95 212.698 24.95C212.998 24.95 213.315 24.9333 213.648 24.9C214.015 24.8667 214.381 24.8167 214.748 24.75L214.948 25.1C214.948 25.1 214.681 25.1833 214.148 25.35C213.648 25.5167 213.031 25.7167 212.298 25.95C211.565 26.1833 210.881 26.4 210.248 26.6C209.615 26.7667 209.181 26.8667 208.948 26.9ZM202.748 48.5C202.715 48.3333 202.698 48.1333 202.698 47.9C202.698 47.6667 202.698 47.4167 202.698 47.15C202.698 46.15 202.765 44.9333 202.898 43.5C203.065 42.0667 203.281 40.6 203.548 39.1C203.815 37.5667 204.115 36.1667 204.448 34.9C205.115 32.6333 205.815 30.9 206.548 29.7C207.315 28.5 208.448 27.6333 209.948 27.1C210.115 27.0333 210.415 26.9333 210.848 26.8C211.315 26.6333 211.798 26.45 212.298 26.25C212.798 26.05 213.231 25.8833 213.598 25.75C213.965 25.6167 214.148 25.55 214.148 25.55L214.348 26L212.998 26.6C212.398 26.8667 211.781 27.4167 211.148 28.25C210.515 29.05 209.931 30 209.398 31.1C208.865 32.1667 208.448 33.25 208.148 34.35C207.815 35.6833 207.531 37.0833 207.298 38.55C207.065 39.9833 206.881 41.3333 206.748 42.6C207.481 41.5667 208.281 40.5167 209.148 39.45C210.015 38.35 210.915 37.3333 211.848 36.4C212.815 35.4333 213.748 34.65 214.648 34.05L215.048 34.55C214.215 35.05 213.348 35.85 212.448 36.95C211.548 38.05 210.681 39.2333 209.848 40.5C209.048 41.7667 208.365 42.95 207.798 44.05C207.231 45.15 206.865 45.9833 206.698 46.55L202.748 48.5ZM191.098 48.5C191.065 48.3333 191.048 48.1333 191.048 47.9C191.048 47.6667 191.048 47.4167 191.048 47.15C191.048 46.15 191.115 44.9333 191.248 43.5C191.415 42.0667 191.631 40.6 191.898 39.1C192.165 37.5667 192.465 36.1667 192.798 34.9C193.465 32.6 194.231 30.8667 195.098 29.7C195.998 28.5 197.198 27.6333 198.698 27.1C199.031 27 199.481 26.85 200.048 26.65C200.615 26.4167 201.165 26.2167 201.698 26.05L201.898 26.6L200.448 27.35C199.848 27.6833 199.198 28.5167 198.498 29.85C197.798 31.1833 197.215 32.6833 196.748 34.35C196.481 35.4167 196.215 36.5333 195.948 37.7C195.715 38.8667 195.515 40 195.348 41.1C195.348 41.1667 195.398 41.2 195.498 41.2C195.665 41.2 195.898 41.1333 196.198 41C196.498 40.8667 196.665 40.7833 196.698 40.75C197.065 40.5167 197.498 40.2167 197.998 39.85C198.531 39.45 199.065 39 199.598 38.5C200.698 37.5 201.715 36.3833 202.648 35.15C203.615 33.8833 204.215 32.6833 204.448 31.55C204.448 31.4833 204.548 31.4667 204.748 31.5C204.981 31.5 205.098 31.5 205.098 31.5C204.865 32.9667 204.215 34.3833 203.148 35.75C202.081 37.1167 200.965 38.4333 199.798 39.7C199.265 40.2667 198.715 40.85 198.148 41.45C197.615 42.0167 197.115 42.6333 196.648 43.3C196.215 43.8667 195.865 44.4167 195.598 44.95C195.365 45.4833 195.248 46 195.248 46.5L191.098 48.5ZM213.266 48.5C213.199 46.4667 213.332 44.2833 213.666 41.95C213.999 39.6167 214.466 37.2833 215.066 34.95C215.666 32.6167 216.366 30.4333 217.166 28.4C216.866 28.4 216.582 28.4 216.316 28.4C216.049 28.3667 215.782 28.3333 215.516 28.3C214.449 28.2333 213.582 28.3 212.916 28.5L212.716 27.95L216.216 26.7C216.482 26.6333 216.766 26.5833 217.066 26.55C217.366 26.5167 217.666 26.5 217.966 26.5C218.766 24.6333 219.599 23.05 220.466 21.75C221.366 20.45 222.199 19.6333 222.966 19.3L228.616 16.9L228.766 17.25C227.032 18.2833 225.549 19.6 224.316 21.2C223.116 22.8 222.099 24.5667 221.266 26.5C222.032 26.5333 222.799 26.5667 223.566 26.6C224.366 26.6333 225.149 26.65 225.916 26.65C226.916 26.65 227.916 26.6 228.916 26.5C229.916 26.4 230.882 26.1833 231.816 25.85L232.116 26.15L227.466 28.15C226.632 28.3833 225.782 28.5333 224.916 28.6C224.082 28.6667 223.249 28.7 222.416 28.7C222.082 28.7 221.749 28.7 221.416 28.7C221.082 28.7 220.749 28.6833 220.416 28.65C219.616 30.9167 218.999 33.2833 218.566 35.75C218.166 38.2167 217.832 40.5833 217.566 42.85C218.299 41.7833 219.132 40.6833 220.066 39.55C220.999 38.4167 221.966 37.3667 222.966 36.4C223.999 35.4333 224.966 34.65 225.866 34.05L226.266 34.55C225.432 35.05 224.549 35.8667 223.616 37C222.682 38.1 221.782 39.3 220.916 40.6C220.082 41.9 219.349 43.1167 218.716 44.25C218.116 45.35 217.732 46.1833 217.566 46.75L213.266 48.5ZM234.551 24.6C234.151 24.6 233.751 24.55 233.351 24.45C232.984 24.3167 232.567 24.1333 232.101 23.9L234.201 21.1C234.467 21.2333 234.834 21.3 235.301 21.3C236.034 21.3 236.867 21.15 237.801 20.85C238.734 20.5167 239.584 20.0833 240.351 19.55C240.617 19.1167 240.917 18.9 241.251 18.9C241.451 18.9 241.551 19 241.551 19.2C241.551 19.3333 241.451 19.55 241.251 19.85C241.051 20.15 240.667 20.55 240.101 21.05C239.567 21.5167 238.984 22.0167 238.351 22.55C237.751 23.05 237.234 23.4833 236.801 23.85C236.367 24.1833 236.151 24.35 236.151 24.35C235.851 24.4167 235.567 24.4833 235.301 24.55C235.067 24.5833 234.817 24.6 234.551 24.6ZM226.701 48.5C226.667 48.3333 226.651 48.15 226.651 47.95C226.651 47.7167 226.651 47.4833 226.651 47.25C226.651 46.2167 226.717 44.9833 226.851 43.55C227.017 42.1167 227.234 40.6333 227.501 39.1C227.801 37.5667 228.117 36.1667 228.451 34.9C229.117 32.6333 229.851 30.9 230.651 29.7C231.451 28.5 232.601 27.6333 234.101 27.1C234.267 27.0333 234.567 26.9333 235.001 26.8C235.467 26.6333 235.951 26.45 236.451 26.25C236.951 26.05 237.384 25.8833 237.751 25.75C238.117 25.6167 238.301 25.55 238.301 25.55L238.501 26L237.151 26.6C236.551 26.8667 235.934 27.4167 235.301 28.25C234.667 29.05 234.084 30 233.551 31.1C233.017 32.1667 232.601 33.25 232.301 34.35C231.967 35.6833 231.651 37.0833 231.351 38.55C231.051 39.9833 230.834 41.3333 230.701 42.6C231.767 41.0333 233.001 39.45 234.401 37.85C235.834 36.2167 237.234 34.95 238.601 34.05L238.951 34.55C238.117 35.05 237.251 35.85 236.351 36.95C235.484 38.05 234.634 39.2333 233.801 40.5C233.001 41.7667 232.317 42.95 231.751 44.05C231.184 45.15 230.817 45.9833 230.651 46.55L226.701 48.5ZM245.945 47.75C244.678 47.75 243.445 47.5667 242.245 47.2C241.078 46.8 240.261 46.1167 239.795 45.15C239.461 44.45 239.295 43.4667 239.295 42.2C239.295 41.0333 239.411 39.7833 239.645 38.45C239.878 37.1167 240.161 35.8167 240.495 34.55C240.861 33.2833 241.195 32.2333 241.495 31.4C241.928 30.2333 242.611 29.1333 243.545 28.1C244.478 27.0667 245.711 26.25 247.245 25.65C247.811 25.4167 248.545 25.2167 249.445 25.05C250.378 24.8833 251.328 24.8 252.295 24.8C253.595 24.8 254.828 25 255.995 25.4C257.161 25.7667 257.995 26.45 258.495 27.45C258.828 28.1167 258.995 29.0667 258.995 30.3C258.995 31.4333 258.861 32.6833 258.595 34.05C258.361 35.4167 258.078 36.7333 257.745 38C257.411 39.2333 257.078 40.2833 256.745 41.15C256.311 42.2833 255.628 43.3833 254.695 44.45C253.761 45.4833 252.528 46.3 250.995 46.9C250.428 47.1333 249.678 47.3333 248.745 47.5C247.845 47.6667 246.911 47.75 245.945 47.75ZM246.695 46.6C247.461 46.6 248.395 46.35 249.495 45.85C250.461 45.3833 251.228 44.6333 251.795 43.6C252.395 42.5667 252.861 41.4333 253.195 40.2C253.528 38.9667 253.795 37.85 253.995 36.85C254.161 36.0167 254.311 35.1 254.445 34.1C254.578 33.1 254.645 32.1167 254.645 31.15C254.645 29.75 254.428 28.55 253.995 27.55C253.561 26.5167 252.745 26 251.545 26C250.811 26 249.895 26.25 248.795 26.75C247.861 27.1833 247.095 27.9333 246.495 29C245.895 30.0333 245.428 31.1667 245.095 32.4C244.761 33.6 244.495 34.7 244.295 35.7C244.128 36.5333 243.961 37.4667 243.795 38.5C243.661 39.5 243.595 40.4833 243.595 41.45C243.595 42.85 243.811 44.0667 244.245 45.1C244.678 46.1 245.495 46.6 246.695 46.6ZM261.104 48.5C261.404 46.6 261.77 44.6167 262.204 42.55C262.67 40.45 263.07 38.45 263.404 36.55C263.67 35.1167 263.887 33.7833 264.054 32.55C264.254 31.3167 264.354 30.2833 264.354 29.45C264.354 29.1833 264.354 28.9333 264.354 28.7C264.354 28.4667 264.32 28.2667 264.254 28.1C264.254 28.1 263.92 28.2 263.254 28.4C262.62 28.6 261.804 29 260.804 29.6L261.104 28.6C261.737 28.2333 262.47 27.8 263.304 27.3C264.17 26.8 265.02 26.3 265.854 25.8C266.687 25.2667 267.37 24.8 267.904 24.4C268.07 24.6333 268.17 24.95 268.204 25.35C268.27 25.75 268.304 26.2167 268.304 26.75C268.304 27.65 268.22 28.7 268.054 29.9C267.92 31.0667 267.737 32.3333 267.504 33.7C267.37 34.6333 267.204 35.5667 267.004 36.5C266.804 37.4333 266.62 38.3833 266.454 39.35C267.054 38.25 267.82 37.1 268.754 35.9C269.687 34.6667 270.704 33.4667 271.804 32.3C272.904 31.1333 274.02 30.0667 275.154 29.1C276.32 28.1333 277.42 27.35 278.454 26.75C279.254 26.3167 280.187 25.9 281.254 25.5C282.32 25.1 283.27 24.7333 284.104 24.4L284.354 24.85L283.604 25.15C282.804 25.4833 282.07 26.15 281.404 27.15C280.737 28.1167 280.12 29.2833 279.554 30.65C279.02 32.0167 278.537 33.45 278.104 34.95C277.704 36.45 277.37 37.8833 277.104 39.25C276.837 40.5833 276.637 41.7 276.504 42.6C277.57 41.0333 278.82 39.4333 280.254 37.8C281.687 36.1667 283.087 34.9 284.454 34L284.854 34.5C284.254 34.8667 283.504 35.5333 282.604 36.5C281.737 37.4667 280.854 38.5667 279.954 39.8C279.054 41.0333 278.27 42.25 277.604 43.45C276.937 44.65 276.554 45.6667 276.454 46.5L272.504 48.5C272.47 48.3 272.454 48.1 272.454 47.9C272.454 47.6667 272.454 47.4333 272.454 47.2C272.454 46 272.57 44.6 272.804 43C273.07 41.3667 273.387 39.7 273.754 38C274.154 36.3 274.587 34.6833 275.054 33.15C275.554 31.6167 276.02 30.3333 276.454 29.3C275.787 29.8333 274.987 30.6 274.054 31.6C273.154 32.5667 272.204 33.6833 271.204 34.95C270.237 36.2167 269.304 37.55 268.404 38.95C267.537 40.3167 266.804 41.6833 266.204 43.05C265.604 44.3833 265.22 45.6 265.054 46.7L261.104 48.5Z" fill="url(#paint0_linear_16_141)"/>
<path d="M55.3518 17.6403C58.5199 23.4225 59.5251 30.144 58.1874 36.6001C56.8497 43.0562 53.2565 48.8249 48.0518 52.8723C42.847 56.9197 36.371 58.9812 29.7843 58.6874C23.1976 58.3935 16.9309 55.7635 12.1072 51.2688C7.28352 46.774 4.21825 40.7083 3.46075 34.1587C2.70325 27.6091 4.30303 21.0039 7.97339 15.5267C11.6438 10.0495 17.1447 6.05856 23.4905 4.269C29.8362 2.47945 36.6118 3.00832 42.603 5.76083" stroke="url(#paint1_linear_16_141)" stroke-linecap="round" stroke-linejoin="round"/>
<path d="M46.314 35.9419C46.314 35.9419 50.2406 25.1358 42.9285 19.4861C39.2008 16.6057 38.3031 12.0887 40.1799 8.83759C41.3381 6.8315 43.2458 5.36769 45.4833 4.76816C47.7208 4.16863 50.1049 4.4825 52.111 5.64071C56.2882 8.05225 56.8114 13.321 55.3079 17.5718C49.3106 30.203 40.5325 51.0312 32.1844 49.6633C27.289 48.8625 31.4185 31.3759 31.4185 31.3759C25.3502 49.3055 15.3992 53.9749 12.5434 51.7506C9.68748 49.5264 10.4702 42.6689 14.0146 35.9665C16.2531 31.3593 17.577 26.3617 17.9128 21.2505" stroke="url(#paint2_linear_16_141)" stroke-linecap="round" stroke-linejoin="round"/>
<defs>
<linearGradient id="paint0_linear_16_141" x1="173" y1="0" x2="173" y2="64" gradientUnits="userSpaceOnUse">
<stop stop-color="#6BEB56"/>
<stop offset="1" stop-color="#3F3CFB"/>
</linearGradient>
<linearGradient id="paint1_linear_16_141" x1="31.0207" y1="3.22749" x2="31.0207" y2="58.7149" gradientUnits="userSpaceOnUse">
<stop stop-color="#6BEB56"/>
<stop offset="1" stop-color="#3F3CFB"/>
</linearGradient>
<linearGradient id="paint2_linear_16_141" x1="33.4404" y1="4.47054" x2="33.4404" y2="52.2647" gradientUnits="userSpaceOnUse">
<stop stop-color="#6BEB56"/>
<stop offset="1" stop-color="#3F3CFB"/>
</linearGradient>
</defs>
</svg>
