<svg width="156" height="156" viewBox="0 0 156 156" fill="none" xmlns="http://www.w3.org/2000/svg">
<circle cx="78" cy="78" r="78" fill="#2C2F80"/>
<path d="M108 69H85.1L78 48L70.9 69H48L66.5 82L59.4 103L78 90L96.5 103L89.4 82L108 69Z" fill="#FFCE31"/>
<path d="M92.2 66.3L96.2 54.9L85.7 62.1L87.2 66.3H92.2ZM73.9 96L78 108L82.1 96L78 93.2L73.9 96ZM96.7 80.3L92.9 82.9L94.5 87.7H107.4L96.7 80.3ZM70.3 62.1L59.8 54.9L63.8 66.3H68.8L70.3 62.1ZM59.3 80.3L48.6 87.7H61.5L63.1 82.9L59.3 80.3Z" fill="#FFDF85"/>
</svg>
