<svg width="141" height="25" viewBox="0 0 141 25" fill="none" xmlns="http://www.w3.org/2000/svg">
<path d="M22.1704 8.62062L15.9716 7.71974L13.2006 2.10206C13.125 1.94825 13.0005 1.82374 12.8466 1.74806C12.4609 1.55763 11.9921 1.71632 11.7993 2.10206L9.02828 7.71974L2.82955 8.62062C2.65865 8.64503 2.5024 8.72559 2.38277 8.84767C2.23815 8.99631 2.15845 9.1963 2.1612 9.40368C2.16395 9.61105 2.24891 9.80886 2.39742 9.95362L6.88229 14.3262L5.82272 20.5005C5.79787 20.6441 5.81376 20.7918 5.86859 20.9269C5.92343 21.062 6.015 21.1789 6.13294 21.2646C6.25088 21.3503 6.39046 21.4012 6.53585 21.4115C6.68124 21.4219 6.82663 21.3913 6.95553 21.3233L12.5 18.4082L18.0444 21.3233C18.1958 21.4038 18.3715 21.4307 18.54 21.4014C18.9648 21.3281 19.2505 20.9253 19.1772 20.5005L18.1176 14.3262L22.6025 9.95362C22.7246 9.83399 22.8051 9.67774 22.8296 9.50684C22.8955 9.0796 22.5976 8.68409 22.1704 8.62062Z" fill="#151975"/>
<path d="M51.1704 8.62062L44.9716 7.71974L42.2006 2.10206C42.125 1.94825 42.0005 1.82374 41.8466 1.74806C41.4609 1.55763 40.9921 1.71632 40.7993 2.10206L38.0283 7.71974L31.8296 8.62062C31.6587 8.64503 31.5024 8.72559 31.3828 8.84767C31.2381 8.99631 31.1585 9.1963 31.1612 9.40368C31.1639 9.61105 31.2489 9.80886 31.3974 9.95362L35.8823 14.3262L34.8227 20.5005C34.7979 20.6441 34.8138 20.7918 34.8686 20.9269C34.9234 21.062 35.015 21.1789 35.1329 21.2646C35.2509 21.3503 35.3905 21.4012 35.5358 21.4115C35.6812 21.4219 35.8266 21.3913 35.9555 21.3233L41.5 18.4082L47.0444 21.3233C47.1958 21.4038 47.3715 21.4307 47.54 21.4014C47.9648 21.3281 48.2505 20.9253 48.1772 20.5005L47.1176 14.3262L51.6025 9.95362C51.7246 9.83399 51.8051 9.67774 51.8296 9.50684C51.8955 9.0796 51.5976 8.68409 51.1704 8.62062Z" fill="#151975"/>
<path d="M80.1704 8.62062L73.9716 7.71974L71.2006 2.10206C71.125 1.94825 71.0005 1.82374 70.8466 1.74806C70.4609 1.55763 69.9921 1.71632 69.7993 2.10206L67.0283 7.71974L60.8296 8.62062C60.6587 8.64503 60.5024 8.72559 60.3828 8.84767C60.2381 8.99631 60.1585 9.1963 60.1612 9.40368C60.1639 9.61105 60.2489 9.80886 60.3974 9.95362L64.8823 14.3262L63.8227 20.5005C63.7979 20.6441 63.8138 20.7918 63.8686 20.9269C63.9234 21.062 64.015 21.1789 64.1329 21.2646C64.2509 21.3503 64.3905 21.4012 64.5358 21.4115C64.6812 21.4219 64.8266 21.3913 64.9555 21.3233L70.5 18.4082L76.0444 21.3233C76.1958 21.4038 76.3715 21.4307 76.54 21.4014C76.9648 21.3281 77.2505 20.9253 77.1772 20.5005L76.1176 14.3262L80.6025 9.95362C80.7246 9.83399 80.8051 9.67774 80.8296 9.50684C80.8955 9.0796 80.5976 8.68409 80.1704 8.62062Z" fill="#151975"/>
<path d="M109.17 8.62062L102.972 7.71974L100.201 2.10206C100.125 1.94825 100 1.82374 99.8466 1.74806C99.4609 1.55763 98.9921 1.71632 98.7993 2.10206L96.0283 7.71974L89.8296 8.62062C89.6587 8.64503 89.5024 8.72559 89.3828 8.84767C89.2381 8.99631 89.1585 9.1963 89.1612 9.40368C89.1639 9.61105 89.2489 9.80886 89.3974 9.95362L93.8823 14.3262L92.8227 20.5005C92.7979 20.6441 92.8138 20.7918 92.8686 20.9269C92.9234 21.062 93.015 21.1789 93.1329 21.2646C93.2509 21.3503 93.3905 21.4012 93.5358 21.4115C93.6812 21.4219 93.8266 21.3913 93.9555 21.3233L99.5 18.4082L105.044 21.3233C105.196 21.4038 105.372 21.4307 105.54 21.4014C105.965 21.3281 106.25 20.9253 106.177 20.5005L105.118 14.3262L109.603 9.95362C109.725 9.83399 109.805 9.67774 109.83 9.50684C109.895 9.0796 109.598 8.68409 109.17 8.62062Z" fill="#151975"/>
<path d="M138.17 8.62062L131.972 7.71974L129.201 2.10206C129.125 1.94825 129 1.82374 128.847 1.74806C128.461 1.55763 127.992 1.71632 127.799 2.10206L125.028 7.71974L118.83 8.62062C118.659 8.64503 118.502 8.72559 118.383 8.84767C118.238 8.99631 118.158 9.1963 118.161 9.40368C118.164 9.61105 118.249 9.80886 118.397 9.95362L122.882 14.3262L121.823 20.5005C121.798 20.6441 121.814 20.7918 121.869 20.9269C121.923 21.062 122.015 21.1789 122.133 21.2646C122.251 21.3503 122.39 21.4012 122.536 21.4115C122.681 21.4219 122.827 21.3913 122.956 21.3233L128.5 18.4082L134.044 21.3233C134.196 21.4038 134.372 21.4307 134.54 21.4014C134.965 21.3281 135.25 20.9253 135.177 20.5005L134.118 14.3262L138.603 9.95362C138.725 9.83399 138.805 9.67774 138.83 9.50684C138.895 9.0796 138.598 8.68409 138.17 8.62062Z" fill="#151975"/>
</svg>
