<svg width="54" height="44" viewBox="0 0 54 44" fill="none" xmlns="http://www.w3.org/2000/svg">
<g clip-path="url(#clip0_12_11)">
<path d="M47.25 40.0191H45V6.23334C45 5.63597 44.7629 5.06307 44.341 4.64067C43.919 4.21826 43.3467 3.98096 42.75 3.98096C42.1533 3.98096 41.581 4.21826 41.159 4.64067C40.7371 5.06307 40.5 5.63597 40.5 6.23334V40.0191H36V15.2429C36 14.6455 35.7629 14.0726 35.341 13.6502C34.919 13.2278 34.3467 12.9905 33.75 12.9905C33.1533 12.9905 32.581 13.2278 32.159 13.6502C31.7371 14.0726 31.5 14.6455 31.5 15.2429V40.0191H27V24.2524C27 23.655 26.7629 23.0821 26.341 22.6597C25.919 22.2373 25.3467 22 24.75 22C24.1533 22 23.581 22.2373 23.159 22.6597C22.7371 23.0821 22.5 23.655 22.5 24.2524V40.0191H18V33.2619C18 32.6645 17.7629 32.0916 17.341 31.6692C16.919 31.2468 16.3467 31.0095 15.75 31.0095C15.1533 31.0095 14.581 31.2468 14.159 31.6692C13.7371 32.0916 13.5 32.6645 13.5 33.2619V40.0191H9V1.72858C9 1.13121 8.76295 0.558307 8.34099 0.135903C7.91903 -0.2865 7.34674 -0.523804 6.75 -0.523804C6.15326 -0.523804 5.58097 -0.2865 5.15901 0.135903C4.73705 0.558307 4.5 1.13121 4.5 1.72858V42.2714C4.5 42.8688 4.73705 43.4417 5.15901 43.8641C5.58097 44.2865 6.15326 44.5238 6.75 44.5238H47.25C47.8467 44.5238 48.419 44.2865 48.841 43.8641C49.2629 43.4417 49.5 42.8688 49.5 42.2714C49.5 41.6741 49.2629 41.1012 48.841 40.6788C48.419 40.2564 47.8467 40.0191 47.25 40.0191Z" fill="#FB5FAA"/>
</g>
<defs>
<clipPath id="clip0_12_11">
<rect width="54" height="44" fill="white"/>
</clipPath>
</defs>
</svg>
